<?xml version="1.0" encoding="UTF-8" standalone="no"?>
<!DOCTYPE svg PUBLIC "-//W3C//DTD SVG 1.1//EN" "http://www.w3.org/Graphics/SVG/1.1/DTD/svg11.dtd">
<svg width="100%" height="100%" viewBox="0 0 3840 2160" version="1.1" xmlns="http://www.w3.org/2000/svg" xmlns:xlink="http://www.w3.org/1999/xlink" xml:space="preserve" xmlns:serif="http://www.serif.com/" style="fill-rule:evenodd;clip-rule:evenodd;stroke-linejoin:round;stroke-miterlimit:2;">
    <g id="Layer2" transform="matrix(1,0,0,1,75.9417,-18.9728)">
        <path d="M3092.46,191.799C2998.44,205.329 2692.06,250.438 2595.24,266.205C2537.17,275.663 2521.43,292.958 2550.43,327.659C2567.75,348.369 2625.94,406.367 2645.14,424.337C2672.27,449.733 2645.06,463.247 2630.39,474.476C2546.97,538.344 2244.38,755.147 2144.51,824.597C2084.24,866.508 2043.88,858.132 1989.15,821.324C1671.32,607.581 1674.17,669.867 1674.17,669.867L1650.67,1039.07C1650.67,1039.07 1856.33,1137.31 2056.54,1262.38C2092.45,1284.81 2142.15,1270.9 2172.36,1241.24C2284.27,1131.38 2653.41,718.053 2757.36,615.207C2770.32,602.387 2785.58,579.359 2809.2,604.937C2833.08,630.801 2894.84,696.075 2920.03,722.847C2954.12,759.075 2975.15,752.262 2989.32,721.663C3025.71,643.116 3135.2,335.347 3165.74,252.823C3190.06,187.09 3161.12,181.919 3092.46,191.799Z" style="fill:url(#_Linear1);"/>
    </g>
    <g id="Layer3" transform="matrix(1,0,0,1,75.9417,-18.9728)">
        <path d="M2170.71,1242.83L1704.72,721.425L1644.81,1037.29C1644.81,1037.29 1913.43,1173.08 2043.33,1257.65C2117.29,1305.81 2170.71,1242.83 2170.71,1242.83Z" style="fill:rgb(149,76,1);"/>
    </g>
    <g transform="matrix(1,0,0,0.999999,75.9417,-18.9719)">
        <g id="Layer1">
            <path d="M575.709,1172.11C575.709,1172.11 1404.19,763.991 1602.48,680.433C1685.4,645.489 1725.76,657.777 1782.53,711.111C1878.67,801.424 2170.71,1242.83 2170.71,1242.83C2170.71,1242.83 1997.03,1047.97 1650.64,1039.43C1197.98,1028.27 575.709,1172.11 575.709,1172.11Z" style="fill:url(#_Linear2);"/>
        </g>
    </g>
    <g id="Text" transform="matrix(1.12528,0,0,1.12528,-190.375,-108.445)">
        <g id="Text1" serif:id="Text" transform="matrix(0.194387,0,0,0.194387,1919.69,958.059)">
            <g id="Text2" serif:id="Text">
                <g id="Text3" serif:id="Text" transform="matrix(1,0,0,1,-7292,-7292)">
                    <g transform="matrix(4.16667,0,0,-4.16667,1479.55,10544.6)">
                        <path d="M0,327.274C-63.067,327.274 -121.346,300.328 -121.441,229.156C-121.346,173.186 -85.684,157.364 -10.647,136.417C33.277,124.258 52.623,119.519 52.182,95.93C51.961,73.408 32.094,57.825 -2.592,57.933C-35.037,57.825 -72.054,71.784 -91.732,95.899L-129.455,53.644C-103.135,19.944 -50.76,-0.324 -2.628,-0.324C53.401,-0.324 121.49,27.4 121.031,98.162C120.572,166.269 58.261,181.083 10.764,193.913C-44.563,208.817 -53.379,214.932 -52.591,232.527C-51.174,259.347 -30.595,268.666 -0.581,268.707C32.499,268.666 59.332,257.619 78.246,242.458L114.664,287.188C87.722,311.506 47.884,327.274 0,327.274ZM406.138,265.534L406.138,320.974L151.3,320.974L151.3,265.534L245.079,265.534L245.079,5.976L312.358,5.976L312.358,265.534L406.138,265.534ZM592.195,327.278C494.573,327.278 430.142,254.689 430.142,163.488C430.142,72.904 494.573,-0.306 592.195,-0.306C690.47,-0.306 754.248,72.904 754.248,163.488C754.248,254.068 690.47,327.278 592.195,327.278ZM592.146,268.221C647.819,268.221 685.372,224.391 685.372,163.488C685.372,102.806 647.774,58.752 592.195,58.752C536.693,58.752 499.019,102.824 499.019,163.488C499.019,224.467 536.625,268.221 592.15,268.221L592.146,268.221ZM974.947,327.278C878.801,327.598 815.342,254.689 815.342,163.488C815.342,72.904 878.801,-0.306 974.952,-0.306C1015.31,-0.302 1061.6,15.345 1100.42,45.301L1083.24,92.546C1049.38,70.569 1011.94,58.531 979.146,58.545C923.895,58.563 884.223,97.753 884.223,163.488C884.223,229.431 923.792,268.378 978.97,268.234C1011.49,268.279 1048.34,256.791 1081.89,235.268L1099.1,282.639C1060.5,312.077 1015.22,327.287 974.947,327.287L974.947,327.278ZM1270.68,146.929L1360.48,5.976L1441.87,5.976L1312.64,192.603L1430.56,320.974L1345.73,320.974L1230.74,186.479L1230.74,320.974L1163.69,320.974L1163.69,5.976L1230.74,5.976L1230.74,103.441L1270.68,146.929ZM1781.22,5.976L1658.36,320.974L1587.25,320.974L1464.4,5.976L1536.8,5.976L1558.96,68.166L1686.66,68.166L1708.83,5.976L1781.22,5.976ZM1578.19,123.605L1622.81,247.66L1667.43,123.605L1578.19,123.605ZM1939.05,327.274C1875.98,327.274 1817.7,300.328 1817.61,229.156C1817.7,173.186 1853.37,157.364 1928.4,136.417C1972.33,124.258 1991.67,119.519 1991.23,95.93C1991.01,73.408 1971.14,57.825 1936.46,57.933C1904.01,57.825 1867,71.784 1847.32,95.899L1809.6,53.644C1835.91,19.944 1888.29,-0.324 1936.42,-0.324C1992.45,-0.324 2060.54,27.4 2060.08,98.162C2059.62,166.269 1997.31,181.083 1949.81,193.913C1894.49,208.817 1885.67,214.932 1886.46,232.527C1887.88,259.347 1908.45,268.666 1938.47,268.707C1971.55,268.666 1998.38,257.619 2017.3,242.458L2053.71,287.188C2026.77,311.506 1986.93,327.274 1939.05,327.274ZM2345.19,265.534L2345.19,320.974L2090.35,320.974L2090.35,265.534L2184.13,265.534L2184.13,5.976L2251.41,5.976L2251.41,265.534L2345.19,265.534ZM2461.04,5.976L2461.04,320.974L2393.99,320.974L2393.99,5.976L2461.04,5.976ZM2688.55,327.278C2592.4,327.598 2528.94,254.689 2528.94,163.488C2528.94,72.904 2592.4,-0.306 2688.55,-0.306C2728.91,-0.302 2775.2,15.345 2814.02,45.301L2796.84,92.546C2762.98,70.569 2725.54,58.531 2692.75,58.545C2637.49,58.563 2597.82,97.753 2597.82,163.488C2597.82,229.431 2637.39,268.378 2692.57,268.234C2725.09,268.279 2761.94,256.791 2795.49,235.268L2812.7,282.639C2774.1,312.077 2728.82,327.287 2688.55,327.287L2688.55,327.278Z" style="fill-rule:nonzero;"/>
                    </g>
                    <g transform="matrix(4.16667,0,0,-4.16667,1286.1,11027.5)">
                        <path d="M0,-94.441L-36.855,0.055L-63.82,0.055L-100.675,-94.441L-71.246,-94.441L-66.024,-78.756L-34.649,-78.756L-29.427,-94.441L0,-94.441ZM-58.655,-56.617L-50.337,-31.628L-42.02,-56.617L-58.655,-56.617ZM38.509,-94.441L38.509,0.055L11.51,0.055L11.51,-94.441L38.509,-94.441ZM99.463,-65.737L99.463,-44.678L51.335,-44.678L51.335,-65.737L99.463,-65.737ZM112.355,0.055L112.355,-94.441L155.36,-94.441C183.465,-94.441 201.974,-74.363 201.974,-47.189C201.974,-20.016 183.465,0.055 155.36,0.055L112.355,0.055ZM139.352,-72.291L139.352,-22.096L152.055,-22.096C165.975,-22.096 174.822,-31.932 174.822,-47.19C174.822,-62.45 165.973,-72.291 152.055,-72.291L139.352,-72.291ZM257.307,-59.897L273.801,-94.441L303.364,-94.441L281.75,-57.592C291.813,-53.319 299.019,-43.365 299.019,-29.922C299.126,-11.864 285.951,0.055 270.246,0.054L218.195,0.054L218.195,-94.443L245.194,-94.443L245.194,-59.899L257.307,-59.897ZM245.194,-37.842L245.194,-22.085L266.964,-22.085C270.353,-22.085 274.056,-24.903 274.026,-29.933C274.026,-35.049 270.326,-37.842 266.963,-37.842L245.194,-37.842ZM341.854,-94.441L341.854,0.055L314.855,0.055L314.855,-94.441L341.854,-94.441ZM416.082,-94.441L448.347,0.055L418.919,0.055L400.839,-63.539L382.759,0.055L353.33,0.055L385.595,-94.441L416.082,-94.441ZM533.105,-72.302L486.844,-72.302L486.844,-56.027L526.492,-56.027L526.492,-33.888L486.844,-33.888L486.844,-22.084L531.755,-22.084L531.755,0.055L459.845,0.055L459.845,-94.441L533.105,-94.441L533.105,-72.302ZM634.116,0.055L608.197,0.055L608.197,-53.647L570.949,0.055L546.65,0.055L546.65,-94.441L572.569,-94.441L572.569,-41.683L609.817,-94.441L634.116,-94.441L634.116,0.055ZM720.393,1.945C699.064,1.945 681.65,-6.964 681.65,-29.374C681.65,-48.273 694.069,-51.918 714.859,-57.858C727.278,-61.367 729.708,-62.582 729.438,-66.767C729.303,-69.737 727.818,-73.517 718.545,-73.517C708.919,-73.517 699.604,-69.467 694.809,-63.591L679.355,-79.871C687.32,-90.526 703.789,-96.331 718.504,-96.331C735.243,-96.331 756.977,-88.771 756.977,-65.822C756.977,-44.358 738.078,-39.363 724.173,-35.583C710.674,-31.939 708.649,-30.724 709.189,-27.214C709.999,-22.219 714.589,-20.869 720.259,-20.869C728.628,-20.869 735.783,-23.839 740.502,-27.547L755.109,-9.853C747.122,-2.51 735.378,1.945 720.393,1.945ZM842.668,-22.084L842.668,0.055L764.405,0.055L764.405,-22.084L790.037,-22.084L790.037,-94.441L817.035,-94.441L817.035,-22.084L842.668,-22.084ZM899.083,1.947C868.373,1.947 848.105,-19.829 848.105,-47.189C848.105,-74.363 868.373,-96.326 899.084,-96.326C929.998,-96.326 950.062,-74.363 950.062,-47.189C950.062,-20.016 929.998,1.947 899.084,1.947L899.083,1.947ZM899.152,-20.862C913.021,-20.862 922.506,-31.816 922.506,-47.189C922.506,-62.428 912.993,-73.517 899.083,-73.517C885.071,-73.517 875.661,-62.454 875.661,-47.19C875.661,-31.926 885.071,-20.864 899.152,-20.864L899.152,-20.862ZM1014.36,1.947C984.553,1.947 964.88,-19.829 964.88,-47.189C964.88,-74.363 984.553,-96.326 1014.36,-96.326C1026.84,-96.324 1041.14,-91.487 1053.15,-82.227L1046.48,-63.882C1036.65,-70.065 1026.08,-73.514 1016.93,-73.506C1003.07,-73.494 992.436,-65.56 992.436,-47.189C992.436,-28.888 1003.05,-20.9 1016.92,-20.858C1025.8,-20.83 1036.03,-24.064 1045.66,-29.935L1052.34,-11.549C1040.49,-2.649 1026.67,1.947 1014.36,1.947ZM1102.58,-60.237L1123.36,-94.441L1155.89,-94.441L1118.71,-40.743L1152.49,0.055L1120.22,0.055L1095.02,-33.887L1095.02,0.055L1068.02,0.055L1068.02,-94.441L1095.02,-94.441L1095.02,-69.364L1102.58,-60.237ZM1243.86,-65.737L1243.86,-44.678L1195.73,-44.678L1195.73,-65.737L1243.86,-65.737ZM1289.83,0.055L1289.83,-94.441L1316.82,-94.441L1316.82,-63.585L1342.69,-63.585C1358.29,-63.585 1371.46,-51.062 1371.46,-31.764C1371.57,-12.595 1358.39,0.057 1342.69,0.055L1289.83,0.055ZM1346.47,-31.775C1346.47,-38.22 1342.28,-41.535 1337.83,-41.535L1316.82,-41.535L1316.82,-22.081L1337.83,-22.081C1342.31,-22.081 1346.5,-25.43 1346.47,-31.775ZM1425.46,-59.897L1441.96,-94.441L1471.52,-94.441L1449.9,-57.592C1459.97,-53.319 1467.17,-43.365 1467.17,-29.922C1467.28,-11.864 1454.11,0.055 1438.4,0.054L1386.35,0.054L1386.35,-94.443L1413.35,-94.443L1413.35,-59.899L1425.46,-59.897ZM1413.35,-37.842L1413.35,-22.085L1435.12,-22.085C1438.51,-22.085 1442.21,-24.903 1442.18,-29.933C1442.18,-35.049 1438.48,-37.842 1435.12,-37.842L1413.35,-37.842ZM1510.01,-94.441L1510.01,0.055L1483.01,0.055L1483.01,-94.441L1510.01,-94.441ZM1575.69,1.947C1545.88,1.947 1526.21,-19.829 1526.21,-47.189C1526.21,-74.363 1545.88,-96.326 1575.69,-96.326C1588.17,-96.324 1602.47,-91.487 1614.48,-82.227L1607.81,-63.882C1597.98,-70.065 1587.41,-73.514 1578.26,-73.506C1564.4,-73.494 1553.77,-65.56 1553.77,-47.189C1553.77,-28.888 1564.38,-20.9 1578.25,-20.858C1587.13,-20.83 1597.36,-24.064 1606.99,-29.935L1613.67,-11.549C1601.82,-2.649 1588,1.947 1575.69,1.947ZM1702.61,-72.302L1656.35,-72.302L1656.35,-56.027L1696,-56.027L1696,-33.888L1656.35,-33.888L1656.35,-22.084L1701.26,-22.084L1701.26,0.055L1629.35,0.055L1629.35,-94.441L1702.61,-94.441L1702.61,-72.302ZM1842.51,-91.066L1825.84,-74.208C1826.5,-71.944 1826.86,-69.505 1826.86,-66.89L1826.86,-47.32L1804.65,-47.32L1803.9,-52.03L1798.63,-46.707C1808.91,-41.842 1815.91,-36.281 1815.87,-24.453C1815.92,-9.125 1804.44,1.945 1786.76,1.945C1768.94,1.945 1757.06,-9.125 1757.02,-25.436C1757.06,-32.479 1759.22,-38.283 1763,-42.198L1763.57,-42.791C1753.11,-47.753 1747.88,-56.253 1747.88,-66.497C1747.88,-85.936 1766.78,-96.196 1787.03,-96.331C1795.13,-96.388 1803.51,-94.683 1810.47,-91.192L1813.62,-94.441L1842.48,-94.441L1842.51,-91.066ZM1779.89,-25.484C1779.87,-21.004 1782.3,-18.574 1786.81,-18.538C1791.89,-18.574 1793.78,-21.679 1793.64,-25.189C1793.64,-26.944 1793.1,-28.564 1786.22,-31.534L1784.4,-32.321L1780.95,-28.834C1780.28,-28.159 1779.87,-27.214 1779.89,-25.484ZM1786.76,-75.137C1779.74,-75.137 1772.99,-71.627 1773.02,-65.386C1772.99,-62.312 1774.74,-60.287 1777.71,-59.072L1778.87,-58.581L1793.72,-73.907C1791.59,-74.713 1789.2,-75.137 1786.76,-75.137ZM1918.11,-22.084L1960.87,-22.084L1960.87,0.055L1891.12,0.055L1891.12,-94.441L1918.11,-94.441L1918.11,-58.727L1955.6,-58.727L1955.6,-36.588L1918.11,-36.588L1918.11,-22.084ZM2023.36,1.947C1992.65,1.947 1972.38,-19.829 1972.38,-47.189C1972.38,-74.363 1992.65,-96.326 2023.36,-96.326C2054.28,-96.326 2074.34,-74.363 2074.34,-47.189C2074.34,-20.016 2054.28,1.947 2023.36,1.947ZM2023.43,-20.862C2037.3,-20.862 2046.79,-31.816 2046.79,-47.189C2046.79,-62.428 2037.27,-73.517 2023.36,-73.517C2009.35,-73.517 1999.94,-62.454 1999.94,-47.19C1999.94,-31.926 2009.35,-20.864 2023.43,-20.864L2023.43,-20.862ZM2129.62,-59.897L2146.12,-94.441L2175.68,-94.441L2154.07,-57.592C2164.13,-53.319 2171.33,-43.365 2171.33,-29.922C2171.44,-11.864 2158.27,0.055 2142.56,0.054L2090.51,0.054L2090.51,-94.443L2117.51,-94.443L2117.51,-59.899L2129.62,-59.897ZM2117.51,-37.842L2117.51,-22.085L2139.28,-22.085C2142.67,-22.085 2146.37,-24.903 2146.34,-29.933C2146.34,-35.049 2142.64,-37.842 2139.28,-37.842L2117.51,-37.842ZM2260.43,-72.302L2214.17,-72.302L2214.17,-56.027L2253.82,-56.027L2253.82,-33.888L2214.17,-33.888L2214.17,-22.084L2259.08,-22.084L2259.08,0.055L2187.17,0.055L2187.17,-94.441L2260.43,-94.441L2260.43,-72.302ZM2320.76,1.947C2290.95,1.947 2271.28,-19.829 2271.28,-47.189C2271.28,-74.363 2290.95,-96.326 2320.76,-96.326C2333.23,-96.324 2347.54,-91.487 2359.54,-82.227L2352.88,-63.882C2343.04,-70.065 2332.48,-73.514 2323.32,-73.506C2309.47,-73.494 2298.83,-65.56 2298.83,-47.189C2298.83,-28.888 2309.44,-20.9 2323.31,-20.858C2332.2,-20.83 2342.43,-24.064 2352.06,-29.935L2358.73,-11.549C2346.89,-2.649 2333.07,1.947 2320.76,1.947ZM2469.01,-94.441L2432.16,0.055L2405.2,0.055L2368.34,-94.441L2397.77,-94.441L2402.99,-78.756L2434.37,-78.756L2439.59,-94.441L2469.01,-94.441ZM2410.36,-56.617L2418.68,-31.628L2426.99,-56.617L2410.36,-56.617ZM2516.16,1.945C2494.84,1.945 2477.42,-6.964 2477.42,-29.374C2477.42,-48.273 2489.84,-51.918 2510.63,-57.858C2523.05,-61.367 2525.48,-62.582 2525.21,-66.767C2525.07,-69.737 2523.59,-73.517 2514.32,-73.517C2504.69,-73.517 2495.38,-69.467 2490.58,-63.591L2475.12,-79.871C2483.09,-90.526 2499.56,-96.331 2514.27,-96.331C2531.01,-96.331 2552.75,-88.771 2552.75,-65.822C2552.75,-44.358 2533.85,-39.363 2519.94,-35.583C2506.44,-31.939 2504.42,-30.724 2504.96,-27.214C2505.77,-22.219 2510.36,-20.869 2516.03,-20.869C2524.4,-20.869 2531.55,-23.839 2536.27,-27.547L2550.88,-9.853C2542.89,-2.51 2531.15,1.945 2516.16,1.945ZM2638.44,-22.084L2638.44,0.055L2560.18,0.055L2560.18,-22.084L2585.81,-22.084L2585.81,-94.441L2612.81,-94.441L2612.81,-22.084L2638.44,-22.084ZM2676.95,-94.441L2676.95,0.055L2649.95,0.055L2649.95,-94.441L2676.95,-94.441ZM2781.29,0.055L2755.37,0.055L2755.37,-53.647L2718.12,0.055L2693.83,0.055L2693.83,-94.441L2719.74,-94.441L2719.74,-41.683L2756.99,-94.441L2781.29,-94.441L2781.29,0.055ZM2889.15,-38.47L2850.52,-38.47L2850.52,-59.799L2864.04,-59.799L2864.04,-68.653C2857.71,-71.797 2851.5,-73.422 2846.28,-73.517C2834.54,-73.787 2824.41,-66.092 2824.39,-47.644C2824.41,-28.564 2835.35,-20.869 2849.39,-20.869C2858.57,-20.869 2869.23,-24.109 2879.2,-30.109L2885.83,-11.888C2874.09,-2.916 2861,1.944 2846.97,1.947C2817.26,1.944 2796.88,-19.925 2796.83,-47.684C2796.88,-74.463 2815.64,-96.332 2841.05,-96.326C2850.35,-96.331 2858.91,-93.399 2867.17,-87.165L2868.45,-94.443L2889.15,-94.443L2889.15,-38.47Z" style="fill-rule:nonzero;"/>
                    </g>
                </g>
                <g id="Text4" serif:id="Text">
                </g>
            </g>
        </g>
    </g>
    <defs>
        <linearGradient id="_Linear1" x1="0" y1="0" x2="1" y2="0" gradientUnits="userSpaceOnUse" gradientTransform="matrix(-874.567,689.787,-689.787,-874.567,2865.63,414.838)"><stop offset="0" style="stop-color:rgb(197,0,0);stop-opacity:1"/><stop offset="0.5" style="stop-color:rgb(198,32,0);stop-opacity:1"/><stop offset="1" style="stop-color:rgb(201,125,0);stop-opacity:1"/></linearGradient>
        <linearGradient id="_Linear2" x1="0" y1="0" x2="1" y2="0" gradientUnits="userSpaceOnUse" gradientTransform="matrix(-795.033,166.389,-166.389,-795.033,1817.1,855.474)"><stop offset="0" style="stop-color:rgb(197,0,0);stop-opacity:1"/><stop offset="0.42" style="stop-color:rgb(198,39,0);stop-opacity:1"/><stop offset="1" style="stop-color:rgb(201,125,0);stop-opacity:1"/></linearGradient>
    </defs>
</svg>
